<?xml version="1.0" encoding="UTF-8"?>
<svg width="80px" height="80px" viewBox="0 0 80 80" version="1.1" xmlns="http://www.w3.org/2000/svg" xmlns:xlink="http://www.w3.org/1999/xlink">
    <!-- Generator: Sketch 58 (84663) - https://sketch.com -->
    <title>enterprise</title>
    <desc>Created with Sketch.</desc>
    <g id="WF---Services" stroke="none" stroke-width="1" fill="none" fill-rule="evenodd" opacity="0.74500093">
        <g id="Service-/-Profil" transform="translate(-149.000000, -1279.000000)" fill="#000000" fill-rule="nonzero">
            <g id="enterprise" transform="translate(149.000000, 1279.000000)">
                <rect id="Rectangle" x="28" y="26.6666667" width="2.66666667" height="2.66666667"></rect>
                <rect id="Rectangle" x="28" y="32" width="2.66666667" height="2.66666667"></rect>
                <rect id="Rectangle" x="28" y="37.3333333" width="2.66666667" height="2.66666667"></rect>
                <rect id="Rectangle" x="28" y="42.6666667" width="2.66666667" height="2.66666667"></rect>
                <rect id="Rectangle" x="33.3333333" y="26.6666667" width="2.66666667" height="2.66666667"></rect>
                <rect id="Rectangle" x="33.3333333" y="32" width="2.66666667" height="2.66666667"></rect>
                <rect id="Rectangle" x="33.3333333" y="37.3333333" width="2.66666667" height="2.66666667"></rect>
                <rect id="Rectangle" x="33.3333333" y="42.6666667" width="2.66666667" height="2.66666667"></rect>
                <rect id="Rectangle" x="38.6666667" y="26.6666667" width="2.66666667" height="2.66666667"></rect>
                <rect id="Rectangle" x="38.6666667" y="32" width="2.66666667" height="2.66666667"></rect>
                <rect id="Rectangle" x="38.6666667" y="37.3333333" width="2.66666667" height="2.66666667"></rect>
                <rect id="Rectangle" x="38.6666667" y="42.6666667" width="2.66666667" height="2.66666667"></rect>
                <rect id="Rectangle" x="44" y="26.6666667" width="2.66666667" height="2.66666667"></rect>
                <rect id="Rectangle" x="33.3333333" y="21.3333333" width="2.66666667" height="2.66666667"></rect>
                <rect id="Rectangle" x="38.6666667" y="21.3333333" width="2.66666667" height="2.66666667"></rect>
                <rect id="Rectangle" x="44" y="21.3333333" width="2.66666667" height="2.66666667"></rect>
                <rect id="Rectangle" x="44" y="32" width="2.66666667" height="2.66666667"></rect>
                <rect id="Rectangle" x="44" y="37.3333333" width="2.66666667" height="2.66666667"></rect>
                <rect id="Rectangle" x="44" y="42.6666667" width="2.66666667" height="2.66666667"></rect>
                <rect id="Rectangle" x="49.3333333" y="26.6666667" width="2.66666667" height="2.66666667"></rect>
                <rect id="Rectangle" x="49.3333333" y="32" width="2.66666667" height="2.66666667"></rect>
                <rect id="Rectangle" x="49.3333333" y="37.3333333" width="2.66666667" height="2.66666667"></rect>
                <rect id="Rectangle" x="49.3333333" y="42.6666667" width="2.66666667" height="2.66666667"></rect>
                <path d="M78.6681667,19.9999997 C78.6676667,19.9999997 78.6671667,19.9999997 78.6666667,19.9999997 L58.6666667,19.9999997 L58.6666667,1.33333333 C58.6671667,0.597333333 58.0708333,-3.14191666e-07 57.3348333,-3.14191666e-07 C57.3343333,-3.14191666e-07 57.3338333,-3.14191666e-07 57.3333333,-3.14191666e-07 L22.6666667,-3.14191666e-07 C21.9306667,-3.14191666e-07 21.3338333,0.595833333 21.3333333,1.33183333 C21.3333333,1.33233333 21.3333333,1.33283333 21.3333333,1.33333333 L21.3333333,19.9999997 L1.33333333,19.9999997 C0.597333333,19.9995 -3.14191666e-07,20.5958333 -3.14191666e-07,21.3318333 C-3.14191666e-07,21.3323333 -3.14191666e-07,21.3328333 -3.14191666e-07,21.3333333 L-3.14191666e-07,69.3333333 C-3.14191666e-07,70.0693333 0.595833333,70.6661667 1.33183333,70.6666667 C1.33233333,70.6666667 1.33283333,70.6666667 1.33333333,70.6666667 L4.1205,70.6666667 C4.04316667,71.107 4.00283333,71.553 3.99999969,71.9999997 L3.99999969,78.6666667 C3.9995,79.4026667 4.59583333,79.9999997 5.33183333,79.9999997 C5.33233333,79.9999997 5.33283333,79.9999997 5.33333333,79.9999997 L74.6666667,79.9999997 C75.4026667,79.9999997 75.9995,79.4041667 75.9999997,78.6681667 C75.9999997,78.6676667 75.9999997,78.6671667 75.9999997,78.6666667 L75.9999997,71.9999997 C75.9973333,71.553 75.957,71.107 75.8795,70.6666667 L78.6666667,70.6666667 C79.4026667,70.6671667 79.9999997,70.0708333 79.9999997,69.3348333 C79.9999997,69.3343333 79.9999997,69.3338333 79.9999997,69.3333333 L79.9999997,21.3333333 C79.9999997,20.5973333 79.4041667,20.0005 78.6681667,19.9999997 Z M57.3333333,57.3333333 C57.3333333,58.8061667 56.1395,60 54.6666667,60 C53.1938333,60 52,58.8061667 52,57.3333333 C52,55.8605 53.1938333,54.6666667 54.6666667,54.6666667 C56.1386667,54.6685 57.3315,55.8613333 57.3333333,57.3333333 Z M25.3333333,54.6666667 C26.8061667,54.6666667 28,55.8605 28,57.3333333 C28,58.8061667 26.8061667,60 25.3333333,60 C23.8605,60 22.6666667,58.8061667 22.6666667,57.3333333 C22.6685,55.8613333 23.8613333,54.6685 25.3333333,54.6666667 Z M17.3333333,77.3333333 L6.66666667,77.3333333 L6.66666667,72 C6.66666667,69.0545 9.0545,66.6666667 12,66.6666667 C14.9455,66.6666667 17.3333333,69.0545 17.3333333,72 L17.3333333,77.3333333 Z M9.33333333,61.3333333 C9.33333333,59.8605 10.5271667,58.6666667 12,58.6666667 C13.4728333,58.6666667 14.6666667,59.8605 14.6666667,61.3333333 C14.6666667,62.8061667 13.4728333,64 12,64 C10.528,63.9981667 9.33516667,62.8053333 9.33333333,61.3333333 Z M17.5353333,66.2375 C17.0325,65.7525 16.4686667,65.3351667 15.858,64.996 C17.8916667,62.8653333 17.8131667,59.4893333 15.6825,57.4555 C13.5518333,55.4216667 10.1758333,55.5003333 8.142,57.631 C6.17483333,59.6918333 6.17483333,62.935 8.142,64.9958333 C6.86933333,65.7021667 5.812,66.7403333 5.08233333,67.9998333 L2.66666667,67.9998333 L2.66666667,22.6666667 L21.3333333,22.6666667 L21.3333333,53.8426667 C19.5023333,55.8971667 19.5641667,59.0158333 21.4753333,60.996 C19.4753333,62.1021667 18.0421667,64.0088333 17.5353333,66.2375 Z M30.6666667,77.3333333 L20,77.3333333 L20,68 C20,65.0545 22.3878333,62.6666667 25.3333333,62.6666667 C28.2788333,62.6666667 30.6666667,65.0545 30.6666667,68 L30.6666667,77.3333333 Z M46.6666667,77.3333333 L33.3333333,77.3333333 L33.3333333,68 C33.3333333,64.3181667 36.3181667,61.3333333 40,61.3333333 C43.6818333,61.3333333 46.6666667,64.3181667 46.6666667,68 L46.6666667,77.3333333 Z M36,54.6666667 C36,52.4575 37.7908333,50.6666667 40,50.6666667 C42.2091667,50.6666667 44,52.4575 44,54.6666667 C44,56.8758333 42.2091667,58.6666667 40,58.6666667 C37.7918333,58.6643333 36.0023333,56.8748333 36,54.6666667 Z M48.1203333,63.4158333 C47.2275,61.8418333 45.8991667,60.5593333 44.2948333,59.7225 C47.111,57.3505 47.471,53.1446667 45.0991667,50.3285 C42.7271667,47.5123333 38.5213333,47.1523333 35.7051667,49.5241667 C32.889,51.8961667 32.529,56.102 34.9008333,58.9181667 C35.1455,59.2086667 35.4145,59.4776667 35.7051667,59.7225 C34.1008333,60.5593333 32.7725,61.8418333 31.8796667,63.4158333 C31.1786667,62.4158333 30.2593333,61.5883333 29.1913333,60.996 C31.2355,58.9048333 31.1975,55.5523333 29.1061667,53.5081667 C27.7596667,52.1918333 25.8155,51.6898333 24,52.1893333 L24,2.66666667 L56,2.66666667 L56,52.1893333 C55.5655,52.0695 55.1173333,52.0058333 54.6666667,52 C51.729,51.9921667 49.3411667,54.3673333 49.3333333,57.3051667 C49.3296667,58.6798333 49.8585,60.0026667 50.8086667,60.996 C49.7406667,61.5883333 48.8213333,62.4158333 48.1203333,63.4158333 Z M60,72 L60,77.3333333 L49.3333333,77.3333333 L49.3333333,68 C49.3333333,65.0545 51.7211667,62.6666667 54.6666667,62.6666667 C57.6121667,62.6666667 60,65.0545 60,68 L60,72 Z M73.3333333,77.3333333 L62.6666667,77.3333333 L62.6666667,72 C62.6666667,69.0545 65.0545,66.6666667 68,66.6666667 C70.9455,66.6666667 73.3333333,69.0545 73.3333333,72 L73.3333333,77.3333333 Z M65.3333333,61.3333333 C65.3333333,59.8605 66.5271667,58.6666667 68,58.6666667 C69.4728333,58.6666667 70.6666667,59.8605 70.6666667,61.3333333 C70.6666667,62.8061667 69.4728333,64 68,64 C66.528,63.9981667 65.3351667,62.8053333 65.3333333,61.3333333 Z M77.3335,68 L74.9176667,68 C74.188,66.7405 73.1306667,65.7023333 71.858,64.996 C73.8916667,62.8653333 73.8131667,59.4893333 71.6825,57.4555 C69.5518333,55.4218333 66.1758333,55.5003333 64.142,57.631 C62.1748333,59.6918333 62.1748333,62.935 64.142,64.9958333 C63.5313333,65.335 62.9673333,65.7523333 62.4646667,66.2373333 C61.958,64.0086667 60.5246667,62.102 58.5246667,60.9958333 C60.4358333,59.0156667 60.4978333,55.897 58.6668333,53.8425 L58.6668333,22.6666667 L77.3335,22.6666667 L77.3335,68 L77.3335,68 Z" id="Shape"></path>
                <rect id="Rectangle" x="62.6666667" y="30.6666667" width="2.66666667" height="21.3333333"></rect>
                <rect id="Rectangle" x="70.6666667" y="30.6666667" width="2.66666667" height="21.3333333"></rect>
                <rect id="Rectangle" x="6.66666667" y="30.6666667" width="2.66666667" height="21.3333333"></rect>
                <rect id="Rectangle" x="14.6666667" y="30.6666667" width="2.66666667" height="21.3333333"></rect>
                <path d="M48.0015,5.33333302 C48.001,5.33333302 48.0005,5.33333302 48,5.33333302 L32,5.33333302 C31.264,5.33283333 30.6671667,5.92916667 30.6666664,6.66516667 C30.6666664,6.66566667 30.6666664,6.66616667 30.6666664,6.66666667 L30.6666664,17.333333 C30.6661667,18.0693333 31.2625,18.6661667 31.9985,18.666667 C31.999,18.666667 31.9995,18.666667 32,18.666667 L48,18.666667 C48.736,18.6671667 49.3328333,18.0708333 49.3333336,17.3348333 C49.3333336,17.3343333 49.3333336,17.3338333 49.3333336,17.333333 L49.3333336,6.66666667 C49.3338333,5.93066667 48.7375,5.33383333 48.0015,5.33333302 Z M46.6666667,16 L33.3333333,16 L33.3333333,8 L46.6666667,8 L46.6666667,16 Z" id="Shape"></path>
            </g>
        </g>
    </g>
</svg>